<svg xmlns="http://www.w3.org/2000/svg" width="25" height="25" viewBox="0 0 25 25">
    <g fill="none" fill-rule="evenodd" opacity=".846">
        <g fill-rule="nonzero">
            <g>
                <g>
                    <g>
                        <g>
                            <g transform="translate(-272 -1246) translate(184 971) translate(0 45) translate(78 222) translate(10 7) translate(0 1)">
                                <circle cx="13" cy="10" r="10" fill="#FFD15C"/>
                                <g fill="#40596B">
                                    <path d="M3.667 0L0 6.389l4.28-.229L6.223 10l3.391-5.91C7.185 3.456 5.098 1.985 3.667 0zM21.311 0c-1.42 1.985-3.504 3.457-5.926 4.097L18.783 10l1.942-3.827L25 6.4 21.311 0z" transform="translate(0 15)"/>
                                </g>
                                <path fill="#FFF" d="M17.888 9.775c.22-.202.098-.556-.205-.597l-2.815-.386c-.122-.018-.224-.087-.278-.193l-1.258-2.403c-.137-.261-.532-.261-.669 0L11.41 8.6c-.054.101-.161.175-.278.193l-2.815.386c-.303.041-.425.395-.205.597l2.034 1.87c.088.083.127.198.107.308l-.478 2.637c-.053.285.269.506.542.368l2.517-1.245c.107-.055.24-.055.346 0l2.518 1.245c.273.133.59-.083.541-.368l-.483-2.637c-.02-.115.02-.23.108-.308l2.024-1.87z"/>
                            </g>
                        </g>
                    </g>
                </g>
            </g>
        </g>
    </g>
</svg>
