<svg xmlns="http://www.w3.org/2000/svg" width="53" height="52" viewBox="0 0 53 52">
    <g fill="none" fill-rule="evenodd">
        <g>
            <g>
                <g>
                    <g>
                        <g>
                            <g>
                                <g>
                                    <g>
                                        <g>
                                            <g fill="#000" fill-rule="nonzero">
                                                <path d="M51.71 11.573c.614-.612.615-1.606.003-2.22l-.003-.003-3.343-3.333 1.114-1.112c.614-.612.615-1.605.003-2.219l-.003-.003c-.616-.614-1.613-.614-2.229 0l-1.114 1.111L42.794.46c-.616-.614-1.613-.614-2.229 0-.614.612-.615 1.606-.003 2.22l.003.003 3.344 3.333-2.23 2.223-.735-.733c-1.338-1.335-3.314-1.8-5.107-1.204l-3.921 1.303c-.736.244-1.404.656-1.953 1.204l-3.174 3.164L8.61 5.294c-1.827-.67-3.877-.221-5.255 1.153l-.976.973C.85 8.944.846 11.418 2.37 12.946c.143.144.297.276.461.396l13.216 9.663c-1.983 2.312-3.643 4.552-5.144 6.813l-2.107-1.26c-1.965-1.176-4.476-.867-6.097.75l-.465.463c-1.774 1.769-1.778 4.64-.01 6.414l.01.01 3.09 3.081-1.573 2.877 6.126 6.107 2.885-1.568 3.09 3.081c1.781 1.776 4.663 1.776 6.443 0l.45-.447c1.628-1.624 1.939-4.149.753-6.12l-1.236-2.053c2.278-1.494 4.513-3.14 6.84-5.13l9.686 13.169c1.286 1.749 3.747 2.124 5.496.838.158-.117.307-.245.446-.383l.964-.961c1.384-1.38 1.837-3.44 1.16-5.274l-6.69-18.104 3.17-3.162c.551-.549.966-1.219 1.212-1.956l1.298-3.88c.602-1.801.132-3.787-1.212-5.127l-.724-.722 2.23-2.222 3.343 3.334c.616.614 1.613.614 2.23 0zM4.798 9.452l1.167-1.163c.275-.275.685-.365 1.05-.23l17.32 6.361-4.17 4.157c-.703.701-1.37 1.392-2.008 2.073L4.914 10.967c-.446-.326-.543-.951-.217-1.397.03-.042.065-.082.101-.118zm-.617 22.823l1.212-1.208c.324-.324.826-.386 1.22-.15l2.601 1.556c-.788 1.29-1.546 2.597-2.302 3.94L4.18 33.692c-.391-.39-.392-1.023-.002-1.414l.002-.002zm14.187 15.561l-2.732-2.723c1.364-.76 2.676-1.51 3.958-2.284l1.55 2.574c.237.394.174.9-.151 1.224l-1.213 1.21c-.39.388-1.022.388-1.412 0zm25.488-1.763l-1.169 1.165c-.39.39-1.024.39-1.414-.002-.035-.035-.068-.073-.097-.113l-9.714-13.207c.68-.634 1.372-1.3 2.077-2.004l4.17-4.157 6.379 17.264c.135.366.045.778-.232 1.054zM31.31 29.69c-7.24 7.217-13.008 10.412-20.872 14.685l-2.791-2.782C11.925 33.774 15.18 27.99 22.394 20.8l9.255-9.228 8.916 8.89-9.254 9.228zm10.794-12.137l-7.538-7.516 3.343-1.111 5.31 5.293-1.115 3.334z" transform="translate(-574 -3225) translate(0 2739) translate(229 83) translate(0 174) translate(0 92) translate(203 49) translate(73 88) translate(20) translate(49)"/>
                                                <path d="M30.894 21.208c-1.344-1.339-3.519-1.34-4.862 0l-4.862 4.846 4.862 4.846 4.862-4.846c1.343-1.339 1.344-3.507 0-4.846z" transform="translate(-574 -3225) translate(0 2739) translate(229 83) translate(0 174) translate(0 92) translate(203 49) translate(73 88) translate(20) translate(49)"/>
                                            </g>
                                            <path fill="#FF5000" d="M3.936 9.964L5.65 8.409c.277-.251.67-.327 1.021-.196L24 14.679c-3.683 3.769-5.74 5.876-6.17 6.321L4.041 11.529c-.455-.313-.571-.936-.258-1.39.044-.065.095-.123.152-.175zM3.584 32.266l1.417-1.605c.333-.378.895-.449 1.312-.166L9 32.322c-.823 1.53-1.615 3.083-2.405 4.678l-3.01-3.41c-.335-.379-.335-.946 0-1.324zM18.408 48.414L15 45.399c1.615-.797 3.168-1.586 4.687-2.399l1.82 2.681c.282.417.211.978-.166 1.31l-1.608 1.423c-.378.335-.946.335-1.325 0zM43.588 46.365l-1.556 1.704c-.372.408-1.004.437-1.412.065-.057-.052-.107-.11-.15-.173L31 34.177c.444-.43 2.54-2.49 6.291-6.177l6.494 17.34c.132.352.056.748-.197 1.025z" transform="translate(-574 -3225) translate(0 2739) translate(229 83) translate(0 174) translate(0 92) translate(203 49) translate(73 88) translate(20) translate(49)"/>
                                        </g>
                                    </g>
                                </g>
                            </g>
                        </g>
                    </g>
                </g>
            </g>
        </g>
    </g>
</svg>
