<svg xmlns="http://www.w3.org/2000/svg" width="81" height="81" viewBox="0 0 81 81">
    <g fill="none" fill-rule="evenodd">
        <g fill-rule="nonzero">
            <g>
                <g>
                    <g>
                        <g>
                            <path fill="#FF5000" d="M80 1s-.297 8.273-3.735 18L62 4.735C71.727 1.297 80 1 80 1z" transform="translate(-313 -498) translate(229 121) translate(0 164) translate(0 102) translate(84 111)"/>
                            <path fill="#FFF" d="M61.277 5L76 19.723c-2.306 6.532-5.988 13.7-11.848 19.559-5.4 5.4-11.895 9.722-18.687 12.718L29 35.535c2.005-4.545 4.803-9.394 8.5-13.986 1.295-1.607 2.699-3.182 4.218-4.701C47.578 10.988 54.745 7.306 61.277 5z" transform="translate(-313 -498) translate(229 121) translate(0 164) translate(0 102) translate(84 111)"/>
                            <g fill="#FF5000">
                                <path d="M43.494 25.381c8.318 12.522-7.254 20.616-15.978 20.616 4.565-4.58 3.232-10.5 3.232-10.5l-1.703-1.71c4.624-2.047 9.558-4.904 14.23-8.68l.219.274z" transform="translate(-313 -498) translate(229 121) translate(0 164) translate(0 102) translate(84 111) translate(16 19)"/>
                                <path d="M10.416 28.838l-.262-.263c-.771-.776-1.15-1.9-.88-2.962.674-2.63 1.668-5.566 3.017-8.638l16.754 16.812c-3.062 1.355-5.987 2.352-8.608 3.028-1.059.272-2.179-.109-2.952-.883l-.261-.262-6.808-6.832zM20.668 2.475l.273.219c-3.763 4.689-6.61 9.64-8.65 14.28l-1.703-1.708S4.69 13.928.125 18.509c0-8.755 8.065-24.382 20.543-16.034z" transform="translate(-313 -498) translate(229 121) translate(0 164) translate(0 102) translate(84 111) translate(16 19)"/>
                            </g>
                            <path fill="#FFA67D" d="M27.231 47L34 53.769c-.486 1.924-1.64 3.949-3.384 5.693C26.856 63.222 17 64 17 64s.778-9.856 4.538-13.616c1.744-1.744 3.77-2.898 5.693-3.384z" transform="translate(-313 -498) translate(229 121) translate(0 164) translate(0 102) translate(84 111)"/>
                            <path fill="#000" d="M42.415 41.415c.78-.782.78-2.048 0-2.828-.782-.783-2.048-.783-2.83 0-.78.78-.78 2.046 0 2.828.782.78 2.048.78 2.83 0zM62.508 30.515c3.322-3.322 3.323-8.7 0-12.023-3.322-3.322-8.7-3.323-12.023 0-3.313 3.313-3.314 8.707 0 12.023 3.316 3.313 8.709 3.314 12.023 0zm-9.618-9.619c1.993-1.993 5.22-1.993 7.214 0 1.993 1.993 1.993 5.22 0 7.214-1.988 1.988-5.225 1.988-7.214 0-1.988-1.99-1.988-5.226 0-7.214z" transform="translate(-313 -498) translate(229 121) translate(0 164) translate(0 102) translate(84 111)"/>
                            <path fill="#000" d="M16.965 38.363c.193.08.396.119.598.119.406 0 .806-.16 1.105-.458 3.138-3.138 7.009-2.942 8.273-2.776l.547.548c-1.077 2.562-1.944 5.11-2.58 7.589-.23.897-.153 1.846.189 2.714-1.505.693-2.956 1.711-4.22 2.975-4.022 4.022-4.839 13.825-4.872 14.24-.036.456.13.905.453 1.228.294.294.692.458 1.105.458.04 0 .082-.002.123-.005.415-.033 10.218-.85 14.24-4.871 1.264-1.264 2.282-2.715 2.975-4.22.919.362 1.865.407 2.716.189 2.477-.636 5.025-1.504 7.588-2.58l.547.547c.166 1.264.362 5.135-2.776 8.273-.446.446-.58 1.118-.338 1.702.242.584.811.965 1.443.965 6.185 0 14.831-3.683 18.016-9.634 1.383-2.584 2.325-6.672-.678-11.773 1.273-1.076 2.499-2.201 3.655-3.358 5.16-5.16 9.21-11.839 12.04-19.85 3.534-10 3.872-18.413 3.885-18.766.016-.434-.15-.854-.457-1.161-.306-.307-.725-.473-1.16-.457-.354.013-8.766.35-18.766 3.885-8.013 2.83-14.691 6.88-19.85 12.04-1.157 1.156-2.282 2.382-3.359 3.656-5.101-3.003-9.19-2.062-11.773-.679C19.684 22.088 16 30.734 16 36.92c0 .632.381 1.202.965 1.444zm12.752 19.55c-2.149 2.15-7.189 3.282-10.375 3.745.463-3.186 1.597-8.226 3.745-10.374 1.203-1.203 2.598-2.116 4-2.63l5.259 5.26c-.514 1.401-1.426 2.796-2.63 4zm7.123-4.848c-.452.116-.976-.054-1.365-.443l-7.096-7.096c-.39-.39-.56-.914-.444-1.365.5-1.95 1.155-3.949 1.95-5.968l12.923 12.922c-2.02.796-4.02 1.45-5.968 1.95zm22.502.827c-2.047 3.825-7.202 6.644-11.9 7.615 1.498-2.819 1.829-6.407 1.281-8.582-.127-.505-.456-.76-.475-.79 3.787-1.833 7.373-4.034 10.702-6.564 1.626 2.97 1.76 5.765.392 8.32zm15.613-36.924L64.033 6.046c5.95-1.848 11.127-2.54 13.711-2.79-.249 2.585-.941 7.762-2.79 13.712zm-31.98 1.168c4.63-4.63 10.604-8.314 17.762-10.966l13.094 13.093c-2.652 7.158-6.336 13.133-10.966 17.762-1.408 1.408-2.924 2.768-4.506 4.043-3.804 3.063-7.99 5.657-12.457 7.722L31.211 35.099c2.065-4.467 4.659-8.653 7.721-12.457 1.276-1.583 2.636-3.1 4.043-4.506zM27.11 21.658c2.556-1.367 5.35-1.233 8.32.393-2.53 3.328-4.73 6.915-6.564 10.701-.024-.014-.305-.368-.827-.485-.215-.049-4.35-.938-8.544 1.291.97-4.697 3.79-9.852 7.615-11.9z" transform="translate(-313 -498) translate(229 121) translate(0 164) translate(0 102) translate(84 111)"/>
                            <path fill="#000" d="M32.829 72.515l4.686-4.687c.647-.647.647-1.696 0-2.343-.648-.647-1.697-.647-2.344 0l-4.686 4.687c-.647.647-.647 1.696 0 2.343.648.647 1.697.647 2.344 0zM10.828 49.515l4.687-4.686c.647-.647.647-1.696 0-2.344-.647-.647-1.696-.647-2.343 0l-4.687 4.686c-.647.647-.647 1.696 0 2.344.647.646 1.695.647 2.343 0zM24.47 68.434L14.435 78.47c-.579.579-.579 1.517 0 2.096.578.579 1.517.579 2.095 0L26.566 70.53c.579-.579.579-1.517 0-2.096-.578-.579-1.517-.579-2.095 0zM11.47 68.434L1.435 78.47c-.579.579-.579 1.517 0 2.096.578.579 1.517.579 2.095 0L13.566 70.53c.579-.579.579-1.517 0-2.096-.578-.579-1.517-.579-2.095 0zM2.53 66.566l10.036-10.037c.579-.578.579-1.516 0-2.095-.579-.579-1.517-.579-2.096 0L.434 64.471c-.579.578-.579 1.516 0 2.095.579.579 1.517.579 2.096 0zM47.5 35.571l2.071-2.07c.572-.573.572-1.5 0-2.072-.572-.572-1.499-.572-2.071 0l-2.071 2.07c-.572.573-.572 1.5 0 2.072.572.572 1.5.572 2.071 0z" transform="translate(-313 -498) translate(229 121) translate(0 164) translate(0 102) translate(84 111)"/>
                        </g>
                    </g>
                </g>
            </g>
        </g>
    </g>
</svg>
